<?xml version="1.0" encoding="UTF-8" standalone="no"?>
<!DOCTYPE svg PUBLIC "-//W3C//DTD SVG 1.1//EN"
 "http://www.w3.org/Graphics/SVG/1.1/DTD/svg11.dtd">
<!-- Generated by graphviz version 2.43.0 (0)
 -->
<!-- Title: classes Pages: 1 -->
<svg width="336pt" height="264pt"
 viewBox="0.00 0.00 336.00 264.00" xmlns="http://www.w3.org/2000/svg" xmlns:xlink="http://www.w3.org/1999/xlink">
<g id="graph0" class="graph" transform="scale(1 1) rotate(0) translate(4 260)">
<title>classes</title>
<polygon fill="white" stroke="transparent" points="-4,4 -4,-260 332,-260 332,4 -4,4"/>
<!-- torchorthopolys.orthopolys.AbstractOrthoPolys -->
<g id="node1" class="node">
<title>torchorthopolys.orthopolys.AbstractOrthoPolys</title>
<polygon fill="none" stroke="black" points="96,-219.5 96,-255.5 252,-255.5 252,-219.5 96,-219.5"/>
<text text-anchor="start" x="104" y="-233.8" font-family="Times,serif" font-size="14.00">AbstractOrthoPolys</text>
</g>
<!-- torchorthopolys.orthopolys.Chebyshev1 -->
<g id="node2" class="node">
<title>torchorthopolys.orthopolys.Chebyshev1</title>
<polygon fill="none" stroke="black" points="0,-0.5 0,-36.5 104,-36.5 104,-0.5 0,-0.5"/>
<text text-anchor="start" x="8" y="-14.8" font-family="Times,serif" font-size="14.00">Chebyshev1</text>
</g>
<!-- torchorthopolys.orthopolys.Gegenbauer -->
<g id="node4" class="node">
<title>torchorthopolys.orthopolys.Gegenbauer</title>
<polygon fill="none" stroke="black" points="122,-73.5 122,-109.5 226,-109.5 226,-73.5 122,-73.5"/>
<text text-anchor="start" x="130" y="-87.8" font-family="Times,serif" font-size="14.00">Gegenbauer</text>
</g>
<!-- torchorthopolys.orthopolys.Chebyshev1&#45;&gt;torchorthopolys.orthopolys.Gegenbauer -->
<g id="edge1" class="edge">
<title>torchorthopolys.orthopolys.Chebyshev1&#45;&gt;torchorthopolys.orthopolys.Gegenbauer</title>
<path fill="none" stroke="black" d="M81.22,-36.51C97.55,-46.01 118.09,-57.96 135.69,-68.21"/>
<polygon fill="none" stroke="black" points="134.19,-71.38 144.59,-73.39 137.71,-65.33 134.19,-71.38"/>
</g>
<!-- torchorthopolys.orthopolys.Chebyshev2 -->
<g id="node3" class="node">
<title>torchorthopolys.orthopolys.Chebyshev2</title>
<polygon fill="none" stroke="black" points="122,-0.5 122,-36.5 226,-36.5 226,-0.5 122,-0.5"/>
<text text-anchor="start" x="130" y="-14.8" font-family="Times,serif" font-size="14.00">Chebyshev2</text>
</g>
<!-- torchorthopolys.orthopolys.Chebyshev2&#45;&gt;torchorthopolys.orthopolys.Gegenbauer -->
<g id="edge2" class="edge">
<title>torchorthopolys.orthopolys.Chebyshev2&#45;&gt;torchorthopolys.orthopolys.Gegenbauer</title>
<path fill="none" stroke="black" d="M174,-36.69C174,-44.71 174,-54.45 174,-63.43"/>
<polygon fill="none" stroke="black" points="170.5,-63.47 174,-73.47 177.5,-63.47 170.5,-63.47"/>
</g>
<!-- torchorthopolys.orthopolys.Jacobi -->
<g id="node6" class="node">
<title>torchorthopolys.orthopolys.Jacobi</title>
<polygon fill="none" stroke="black" points="144.5,-146.5 144.5,-182.5 203.5,-182.5 203.5,-146.5 144.5,-146.5"/>
<text text-anchor="start" x="152.5" y="-160.8" font-family="Times,serif" font-size="14.00">Jacobi</text>
</g>
<!-- torchorthopolys.orthopolys.Gegenbauer&#45;&gt;torchorthopolys.orthopolys.Jacobi -->
<g id="edge3" class="edge">
<title>torchorthopolys.orthopolys.Gegenbauer&#45;&gt;torchorthopolys.orthopolys.Jacobi</title>
<path fill="none" stroke="black" d="M174,-109.69C174,-117.71 174,-127.45 174,-136.43"/>
<polygon fill="none" stroke="black" points="170.5,-136.47 174,-146.47 177.5,-136.47 170.5,-136.47"/>
</g>
<!-- torchorthopolys.orthopolys.Hermite -->
<g id="node5" class="node">
<title>torchorthopolys.orthopolys.Hermite</title>
<polygon fill="none" stroke="black" points="50,-146.5 50,-182.5 126,-182.5 126,-146.5 50,-146.5"/>
<text text-anchor="start" x="58" y="-160.8" font-family="Times,serif" font-size="14.00">Hermite</text>
</g>
<!-- torchorthopolys.orthopolys.Hermite&#45;&gt;torchorthopolys.orthopolys.AbstractOrthoPolys -->
<g id="edge4" class="edge">
<title>torchorthopolys.orthopolys.Hermite&#45;&gt;torchorthopolys.orthopolys.AbstractOrthoPolys</title>
<path fill="none" stroke="black" d="M108.82,-182.69C119.8,-191.76 133.45,-203.02 145.41,-212.9"/>
<polygon fill="none" stroke="black" points="143.43,-215.8 153.37,-219.47 147.89,-210.41 143.43,-215.8"/>
</g>
<!-- torchorthopolys.orthopolys.Jacobi&#45;&gt;torchorthopolys.orthopolys.AbstractOrthoPolys -->
<g id="edge5" class="edge">
<title>torchorthopolys.orthopolys.Jacobi&#45;&gt;torchorthopolys.orthopolys.AbstractOrthoPolys</title>
<path fill="none" stroke="black" d="M174,-182.69C174,-190.71 174,-200.45 174,-209.43"/>
<polygon fill="none" stroke="black" points="170.5,-209.47 174,-219.47 177.5,-209.47 170.5,-209.47"/>
</g>
<!-- torchorthopolys.orthopolys.Laguerre -->
<g id="node7" class="node">
<title>torchorthopolys.orthopolys.Laguerre</title>
<polygon fill="none" stroke="black" points="222,-146.5 222,-182.5 304,-182.5 304,-146.5 222,-146.5"/>
<text text-anchor="start" x="230" y="-160.8" font-family="Times,serif" font-size="14.00">Laguerre</text>
</g>
<!-- torchorthopolys.orthopolys.Laguerre&#45;&gt;torchorthopolys.orthopolys.AbstractOrthoPolys -->
<g id="edge6" class="edge">
<title>torchorthopolys.orthopolys.Laguerre&#45;&gt;torchorthopolys.orthopolys.AbstractOrthoPolys</title>
<path fill="none" stroke="black" d="M241.46,-182.69C229.98,-191.84 215.69,-203.24 203.23,-213.18"/>
<polygon fill="none" stroke="black" points="200.98,-210.5 195.35,-219.47 205.35,-215.97 200.98,-210.5"/>
</g>
<!-- torchorthopolys.orthopolys.Legendre -->
<g id="node8" class="node">
<title>torchorthopolys.orthopolys.Legendre</title>
<polygon fill="none" stroke="black" points="244,-0.5 244,-36.5 328,-36.5 328,-0.5 244,-0.5"/>
<text text-anchor="start" x="252" y="-14.8" font-family="Times,serif" font-size="14.00">Legendre</text>
</g>
<!-- torchorthopolys.orthopolys.Legendre&#45;&gt;torchorthopolys.orthopolys.Gegenbauer -->
<g id="edge7" class="edge">
<title>torchorthopolys.orthopolys.Legendre&#45;&gt;torchorthopolys.orthopolys.Gegenbauer</title>
<path fill="none" stroke="black" d="M259.17,-36.51C244.32,-45.92 225.67,-57.74 209.61,-67.93"/>
<polygon fill="none" stroke="black" points="207.57,-65.08 201,-73.39 211.32,-70.99 207.57,-65.08"/>
</g>
</g>
</svg>
